<svg xmlns="http://www.w3.org/2000/svg" viewBox="0 0 128 128" fill="none">
  <defs>
    <linearGradient id="g1" x1="0" x2="1" y1="0" y2="1">
      <stop offset="0%" stop-color="#6d28d9"/>
      <stop offset="100%" stop-color="#06b6d4"/>
    </linearGradient>
  </defs>
  <g stroke="url(#g1)" stroke-width="4" stroke-linecap="round" stroke-linejoin="round">
    <path d="M44 28c-8 0-14 6-14 14v6c-6 1-10 6-10 12s4 11 10 12v6c0 8 6 14 14 14 3 0 6-1 8-3 2 6 8 11 15 11s13-5 15-11c2 2 5 3 8 3 8 0 14-6 14-14v-6c6-1 10-6 10-12s-4-11-10-12v-6c0-8-6-14-14-14-3 0-6 1-8 3-2-6-8-11-15-11s-13 5-15 11c-2-2-5-3-8-3z"/>
    <path d="M64 20v88M34 48h20M74 48h20M30 64h24M74 64h24M34 80h20M74 80h20"/>
  </g>
</svg>
