<svg xmlns="http://www.w3.org/2000/svg" viewBox="0 0 64 64">
  <defs>
    <linearGradient id="g" x1="0" x2="1" y1="0" y2="1">
      <stop offset="0%" stop-color="#6d28d9"/>
      <stop offset="100%" stop-color="#06b6d4"/>
    </linearGradient>
  </defs>
  <circle cx="32" cy="32" r="30" fill="url(#g)"/>
  <path d="M18 24c-3 0-5 2-5 5v2c-2 0-4 2-4 4s2 4 4 4v2c0 3 2 5 5 5 1 0 2 0 3-1 1 2 3 4 6 4s5-2 6-4c1 1 2 1 3 1 3 0 5-2 5-5v-2c2 0 4-2 4-4s-2-4-4-4v-2c0-3-2-5-5-5-1 0-2 0-3 1-1-2-3-4-6-4s-5 2-6 4c-1-1-2-1-3-1z" fill="#fff"/>
</svg>
